<?xml version="1.0" encoding="UTF-8" standalone="no"?>
<!DOCTYPE svg PUBLIC "-//W3C//DTD SVG 1.1//EN"
 "http://www.w3.org/Graphics/SVG/1.1/DTD/svg11.dtd">
<!-- Generated by graphviz version 12.2.1 (20241206.2353)
 -->
<!-- Pages: 1 -->
<svg width="308pt" height="69pt"
 viewBox="0.00 0.00 308.20 69.22" xmlns="http://www.w3.org/2000/svg" xmlns:xlink="http://www.w3.org/1999/xlink">
<g id="graph0" class="graph" transform="scale(1 1) rotate(0) translate(4 65.22)">
<polygon fill="white" stroke="none" points="-4,4 -4,-65.22 304.2,-65.22 304.2,4 -4,4"/>
<!-- 4347928976 -->
<g id="node1" class="node">
<title>4347928976</title>
<polygon fill="lightgrey" stroke="black" points="300.2,-40.24 233.2,-40.24 233.2,-20.99 300.2,-20.99 300.2,-40.24"/>
<text text-anchor="middle" x="266.7" y="-26.74" font-family="Times,serif" font-size="10.00">data: 5.0000</text>
</g>
<!-- 4347928976+ -->
<g id="node2" class="node">
<title>4347928976+</title>
<ellipse fill="none" stroke="black" cx="188.64" cy="-30.61" rx="15.56" ry="13.61"/>
<text text-anchor="middle" x="188.64" y="-26.74" font-family="Times,serif" font-size="10.00">+</text>
</g>
<!-- 4347928976+&#45;&gt;4347928976 -->
<g id="edge1" class="edge">
<title>4347928976+&#45;&gt;4347928976</title>
<path fill="none" stroke="black" d="M204.67,-30.61C209.7,-30.61 215.59,-30.61 221.7,-30.61"/>
<polygon fill="black" stroke="black" points="221.26,-34.11 231.26,-30.61 221.26,-27.11 221.26,-34.11"/>
</g>
<!-- 4347847280 -->
<g id="node3" class="node">
<title>4347847280</title>
<polygon fill="lightgrey" stroke="black" points="144.08,-55.24 77.08,-55.24 77.08,-35.99 144.08,-35.99 144.08,-55.24"/>
<text text-anchor="middle" x="110.58" y="-41.74" font-family="Times,serif" font-size="10.00">data: 2.0000</text>
</g>
<!-- 4347847280&#45;&gt;4347928976+ -->
<g id="edge4" class="edge">
<title>4347847280&#45;&gt;4347928976+</title>
<path fill="none" stroke="black" d="M144.28,-39.16C150.3,-37.98 156.51,-36.75 162.28,-35.61"/>
<polygon fill="black" stroke="black" points="162.68,-39.1 171.82,-33.73 161.33,-32.23 162.68,-39.1"/>
</g>
<!-- 4347847280load -->
<g id="node4" class="node">
<title>4347847280load</title>
<ellipse fill="none" stroke="black" cx="24.04" cy="-47.61" rx="24.04" ry="13.61"/>
<text text-anchor="middle" x="24.04" y="-43.74" font-family="Times,serif" font-size="10.00">load</text>
</g>
<!-- 4347847280load&#45;&gt;4347847280 -->
<g id="edge2" class="edge">
<title>4347847280load&#45;&gt;4347847280</title>
<path fill="none" stroke="black" d="M48.14,-47.07C53.51,-46.94 59.39,-46.8 65.33,-46.66"/>
<polygon fill="black" stroke="black" points="65.26,-50.16 75.17,-46.43 65.09,-43.16 65.26,-50.16"/>
</g>
<!-- 4336678416 -->
<g id="node5" class="node">
<title>4336678416</title>
<polygon fill="lightgrey" stroke="black" points="144.08,-27.24 77.08,-27.24 77.08,-7.99 144.08,-7.99 144.08,-27.24"/>
<text text-anchor="middle" x="110.58" y="-13.74" font-family="Times,serif" font-size="10.00">data: 3.0000</text>
</g>
<!-- 4336678416&#45;&gt;4347928976+ -->
<g id="edge5" class="edge">
<title>4336678416&#45;&gt;4347928976+</title>
<path fill="none" stroke="black" d="M144.28,-23.2C150.21,-24.21 156.31,-25.26 162,-26.23"/>
<polygon fill="black" stroke="black" points="160.97,-29.6 171.42,-27.84 162.15,-22.7 160.97,-29.6"/>
</g>
<!-- 4336678416load -->
<g id="node6" class="node">
<title>4336678416load</title>
<ellipse fill="none" stroke="black" cx="24.04" cy="-13.61" rx="24.04" ry="13.61"/>
<text text-anchor="middle" x="24.04" y="-9.74" font-family="Times,serif" font-size="10.00">load</text>
</g>
<!-- 4336678416load&#45;&gt;4336678416 -->
<g id="edge3" class="edge">
<title>4336678416load&#45;&gt;4336678416</title>
<path fill="none" stroke="black" d="M48.14,-14.7C53.51,-14.96 59.39,-15.24 65.33,-15.52"/>
<polygon fill="black" stroke="black" points="65.02,-19.01 75.17,-15.98 65.35,-12.01 65.02,-19.01"/>
</g>
</g>
</svg>
